mtllib materials.mtl
v 0.07319966 0.01499999 0.4398003
v -0.5068007 0.01499987 0.4398003
v -0.5068007 0.03499985 0.4398003
v 0.07319963 0.03500009 0.4398003
v 0.07319972 0.0150001 -0.4402001
v 0.07319972 0.03500021 -0.4402001
v -0.5068005 0.03500009 -0.4402003
v -0.5068005 0.01499999 -0.4402003
v 0.4932005 0.0150001 -0.0101999
v 0.5500008 -0.03499997 -0.01099992
v 0.0879997 -0.03499997 0.4840005
v 0.4932005 0.03500021 -0.0101999
v 0.0879997 -0.03499997 -0.4840006
v -0.5500005 -0.03499997 -0.4840006
v -0.5500008 -0.03500032 0.4840004
vn -1.192093E-07 -1.748456E-07 1
vn 1.192093E-07 1.748456E-07 -1
vn 0.5654213 0.6338787 0.5277278
vn -1.748456E-07 1 1.748456E-07
vn 0.7310548 2.397879E-06 0.682319
vn -1 -1.748456E-07 -1.192093E-07
vn 0.7153758 2.321335E-06 -0.6987401
vn 0.552133 0.6358552 -0.5392934
vn 5.636246E-08 0.6589337 -0.7522011
vn -0.7566866 0.6537779 1.99277E-08
vn -3.116043E-07 0.6623161 0.7492246
vn 6.82798E-08 -1 -1.409793E-07
usemtl mat23
f 4//1 3//1 2//1 1//1
f 8//2 7//2 6//2 5//2
f 11//3 10//3 9//3 1//3
f 9//5 12//5 4//5 1//5
f 3//6 7//6 8//6 2//6
f 9//7 5//7 6//7 12//7
f 10//8 13//8 5//8 9//8
f 13//9 14//9 8//9 5//9
f 14//10 15//10 2//10 8//10
f 15//11 11//11 1//11 2//11
f 15//12 14//12 13//12 10//12 11//12
usemtl mat21
f 12//4 6//4 7//4 3//4 4//4
